# xmcd
#
# Track frame offsets:
#	150
#	14877
#	32087
#	49930
#	64185
#	76960
#	90410
#	108965
#	130720
#	143365
#	158970
#	172625
#	184159
#	205710
#	222667
#	238485
#
# Disc length: 3443 seconds
#
# Revision: 1
# Processed by: cddbd v1.4PL0 Copyright (c) Steve Scherf et al.
# Submitted via: audiograbber 1.80.04
#
DISCID=da0d7110
DTITLE=Tony McPhee and Friends - I Asked For Water, She Gave Me Gasoline
DYEAR=1900
DGENRE=
TTITLE0=Oh Death
TTITLE1=She's Gone
TTITLE2=Factory Blues
TTITLE3=Boogie Woman
TTITLE4=Nervous
TTITLE5=Crazy With The Blues
TTITLE6=Lord I Feel Tired
TTITLE7=Gasoline
TTITLE8=Rock Me
TTITLE9=London's Got The Blues
TTITLE10=Love's In Vain
TTITLE11=Dust My Blues
TTITLE12=Built My Hopes Too High
TTITLE13=Don't Pass The Hat Around
TTITLE14=When My Woman Is With Me
TTITLE15=I'm So Tired
EXTD=
EXTT0=
EXTT1=
EXTT2=
EXTT3=
EXTT4=
EXTT5=
EXTT6=
EXTT7=
EXTT8=
EXTT9=
EXTT10=
EXTT11=
EXTT12=
EXTT13=
EXTT14=
EXTT15=
PLAYORDER=
